<?xml version="1.0" standalone="no"?>
<!DOCTYPE svg PUBLIC "-//W3C//DTD SVG 20010904//EN"
 "http://www.w3.org/TR/2001/REC-SVG-20010904/DTD/svg10.dtd">
<svg version="1.0" xmlns="http://www.w3.org/2000/svg"
 width="960.000000pt" height="960.000000pt" viewBox="0 0 960.000000 960.000000"
 preserveAspectRatio="xMidYMid meet">
<metadata>
Created by potrace 1.11, written by Peter Selinger 2001-2013
</metadata>
<g transform="translate(0.000000,960.000000) scale(0.100000,-0.100000)"
fill="#000000" stroke="none">
<path d="M0 4800 l0 -4800 4800 0 4800 0 0 320 0 320 -4795 0 -4795 0 0 320 0
320 4795 0 4795 0 0 320 0 320 -4795 0 -4795 0 0 335 0 335 4795 0 4795 0 0
320 0 320 -4795 0 -4795 0 0 320 0 320 4795 0 4795 0 0 320 0 320 -2225 0
-2225 0 0 335 0 335 2225 0 2225 0 0 305 0 305 -2225 0 -2225 0 0 320 0 320
2225 0 2225 0 0 305 0 305 -2225 0 -2225 0 0 335 0 335 2225 0 2225 0 0 305 0
305 -2225 0 -2225 0 0 320 0 320 2225 0 2225 0 0 320 0 320 -4800 0 -4800 0 0
-4800z m942 4278 l151 -3 -116 -88 c-64 -48 -117 -88 -117 -90 0 -1 18 -65 40
-141 22 -77 38 -142 35 -144 -3 -4 -107 68 -211 145 l-31 23 -124 -89 c-68
-49 -125 -88 -126 -87 -1 1 16 62 37 136 22 74 39 142 39 150 0 8 -51 53 -114
100 l-114 85 151 5 152 5 17 50 c10 28 33 93 50 145 l32 95 49 -147 49 -147
151 -3z m1302 195 c16 -49 37 -112 48 -140 l19 -52 151 -3 150 -3 -111 -84
c-62 -46 -114 -88 -117 -92 -2 -4 14 -70 35 -145 22 -76 38 -140 36 -142 -3
-4 -111 70 -211 145 l-31 23 -127 -89 c-69 -50 -126 -89 -126 -88 0 1 18 65
40 142 22 77 40 144 40 150 -1 5 -53 48 -116 95 l-115 85 152 5 153 5 45 138
c25 75 48 137 51 137 3 0 19 -39 34 -87z m1537 -50 l45 -138 152 -5 152 -5
-115 -88 c-63 -48 -115 -91 -115 -95 0 -4 18 -68 40 -142 21 -74 37 -136 35
-138 -2 -3 -58 34 -125 82 l-120 86 -126 -91 c-77 -55 -124 -83 -120 -72 62
209 77 275 66 288 -7 8 -59 50 -117 92 l-104 78 152 5 153 5 45 138 c25 75 48
137 51 137 3 0 26 -62 51 -137z m-2249 -1045 l20 -57 151 -3 150 -3 -116 -88
c-64 -48 -117 -88 -117 -90 0 -1 18 -65 40 -141 22 -77 38 -142 35 -144 -2 -2
-58 34 -124 81 l-120 86 -123 -89 c-68 -48 -124 -87 -125 -86 -1 1 16 62 37
136 22 74 40 142 39 150 0 8 -52 53 -115 100 l-115 85 152 5 151 5 44 125 c25
69 47 132 50 140 3 9 18 -21 36 -70 16 -47 39 -111 50 -142z m1489 85 l45
-138 154 -5 153 -5 -116 -88 c-64 -48 -117 -90 -117 -93 0 -3 18 -68 40 -144
22 -76 40 -141 40 -144 0 -3 -56 34 -124 83 l-124 90 -127 -90 c-78 -55 -125
-83 -121 -72 45 151 76 275 72 281 -3 5 -55 47 -116 93 l-110 84 152 5 152 5
45 138 c25 75 48 137 51 137 3 0 26 -62 51 -137z m1520 0 l45 -138 153 -5 153
-5 -116 -88 c-64 -48 -116 -91 -116 -95 0 -4 18 -70 40 -147 22 -77 40 -141
40 -142 0 -1 -54 36 -119 82 -66 47 -125 85 -132 85 -6 0 -65 -38 -130 -85
-66 -46 -119 -82 -119 -79 0 3 18 68 40 144 22 76 40 141 40 144 0 3 -53 45
-117 93 l-116 88 153 5 154 5 45 138 c25 75 48 137 51 137 3 0 26 -62 51 -137z
m-3780 -1010 l30 -92 151 -3 151 -3 -116 -89 c-64 -49 -117 -89 -117 -90 0 -1
18 -64 40 -140 22 -77 38 -142 35 -144 -2 -3 -58 34 -124 81 l-119 85 -123
-88 c-68 -49 -125 -88 -126 -86 -1 1 16 64 38 140 22 76 38 144 35 152 -3 7
-55 50 -116 96 l-110 83 153 3 153 2 38 118 c61 186 55 175 77 117 10 -27 33
-92 50 -142z m1699 -93 l153 -5 -117 -88 c-64 -49 -116 -91 -116 -94 0 -2 18
-67 40 -143 22 -76 40 -141 40 -144 0 -3 -53 33 -119 79 -65 47 -123 85 -129
85 -6 0 -64 -38 -129 -84 -65 -46 -119 -83 -120 -82 -1 1 16 62 37 136 22 74
40 140 40 147 0 7 -52 52 -115 100 l-115 88 151 5 152 5 37 110 c66 194 55
191 110 30 l47 -140 153 -5z m1321 143 l45 -138 154 -5 153 -5 -116 -88 c-64
-48 -117 -91 -117 -95 0 -4 18 -69 41 -145 22 -77 39 -140 37 -142 -2 -2 -55
35 -118 81 -63 46 -122 83 -130 83 -8 0 -67 -37 -130 -83 -63 -46 -116 -83
-117 -82 -2 1 15 65 37 142 22 76 40 142 40 146 0 4 -53 47 -117 95 l-116 88
153 5 154 5 45 138 c25 75 48 137 51 137 3 0 26 -62 51 -137z m-2080 -1103
l154 -5 -118 -89 c-64 -49 -117 -91 -117 -93 0 -3 18 -67 40 -143 22 -76 40
-141 40 -144 0 -3 -54 33 -119 79 -66 47 -124 85 -130 85 -6 0 -63 -38 -128
-84 -65 -47 -119 -84 -120 -82 -1 1 16 62 37 136 22 74 40 140 40 147 0 7 -52
52 -116 100 l-116 88 154 3 154 2 38 118 c62 189 52 187 106 27 l47 -140 154
-5z m1320 143 l45 -138 154 -5 153 -5 -117 -88 c-64 -49 -116 -91 -116 -94 0
-2 18 -68 41 -145 22 -77 39 -142 37 -143 -2 -2 -55 35 -118 81 -63 46 -121
83 -127 84 -7 0 -65 -38 -130 -84 -65 -47 -119 -83 -120 -82 -2 1 15 65 37
142 22 76 40 142 40 146 0 4 -53 47 -117 95 l-116 88 153 5 154 5 45 138 c25
75 48 137 51 137 3 0 26 -62 51 -137z m1520 0 l45 -138 154 -5 153 -5 -116
-88 c-64 -48 -117 -91 -117 -95 0 -4 18 -70 40 -146 22 -77 39 -141 37 -142
-1 -1 -55 36 -120 82 -64 46 -123 84 -130 84 -6 -1 -64 -38 -127 -84 -63 -46
-116 -83 -117 -82 -2 1 15 65 37 142 22 76 40 142 40 146 0 4 -53 47 -117 95
l-116 88 153 5 154 5 45 138 c25 75 48 137 51 137 3 0 26 -62 51 -137z m-3600
-1103 l154 -5 -118 -89 c-83 -63 -116 -94 -113 -105 39 -131 77 -273 74 -276
-1 -2 -55 35 -118 81 -63 46 -120 83 -126 84 -6 0 -64 -38 -129 -85 -66 -46
-120 -83 -121 -82 -2 1 15 63 36 137 22 74 40 141 40 147 0 7 -53 52 -117 100
l-116 88 154 3 155 2 38 118 c62 189 52 187 106 27 l47 -140 154 -5z m1520 0
l154 -5 -117 -89 c-65 -49 -118 -90 -118 -93 0 -3 18 -68 41 -145 22 -77 39
-142 37 -143 -2 -2 -55 35 -118 81 -63 46 -120 83 -126 84 -6 0 -65 -38 -130
-84 -66 -46 -120 -83 -121 -82 -1 1 16 62 37 136 22 74 40 141 40 147 0 7 -53
52 -117 100 l-116 88 153 5 153 5 44 125 c24 69 46 132 49 140 4 8 27 -47 53
-125 l48 -140 154 -5z m1320 143 l45 -138 154 -5 153 -5 -117 -89 c-64 -49
-116 -91 -116 -95 0 -3 18 -69 40 -145 22 -77 39 -141 37 -142 -1 -1 -55 35
-120 82 -65 46 -122 84 -127 84 -5 0 -62 -38 -127 -84 -65 -47 -119 -83 -120
-82 -2 1 15 65 37 142 22 76 40 142 40 146 0 3 -52 46 -116 95 l-117 88 153 5
154 5 45 138 c25 75 48 137 51 137 3 0 26 -62 51 -137z"/>
</g>
</svg>
